<svg xmlns="http://www.w3.org/2000/svg" viewBox="0 0 363 290" width="363" height="290" preserveAspectRatio="xMidYMid meet" style="width: 100%; height: 100%; transform: translate3d(0px, 0px, 0px);"><defs><clipPath id="__lottie2_element_2"><rect width="363" height="290" x="0" y="0"></rect></clipPath></defs><g clip-path="url(#__lottie2_element_2)"><g transform="matrix(1,0,0,1,-184,-1188)" opacity="1" style="display: block;"><g opacity="1" transform="matrix(1,0,0,1,409.08599853515625,1306.89697265625)"><path fill="rgb(47,47,47)" fill-opacity="1" d=" M-7.883999824523926,-14.25 C-7.883999824523926,-14.25 -14.72599983215332,0.1459999978542328 1.159000039100647,7.752999782562256 C14.72700023651123,14.25 7.866000175476074,-6.3429999351501465 5.611999988555908,-8.354999542236328 C3.3580000400543213,-10.369000434875488 0.7850000262260437,-12.829999923706055 -1.0049999952316284,-12.829999923706055 C-2.7950000762939453,-12.829999923706055 -7.883999824523926,-14.25 -7.883999824523926,-14.25z"></path></g><g opacity="1" transform="matrix(1,0,0,1,449.5830078125,1304.613037109375)"><path fill="rgb(64,64,64)" fill-opacity="1" d=" M-5.36299991607666,-19.38800048828125 C-5.36299991607666,-19.38800048828125 8.053999900817871,-18.711999893188477 6.823999881744385,-7.63700008392334 C5.5929999351501465,3.437000036239624 -1.1260000467300415,19.38800048828125 -1.1260000467300415,19.38800048828125 C-1.1260000467300415,19.38800048828125 -7.507999897003174,8.470999717712402 -7.507999897003174,8.470999717712402 C-7.507999897003174,8.470999717712402 -7.636000156402588,-0.8370000123977661 -7.84499979019165,-1.6089999675750732 C-8.053999900817871,-2.378999948501587 -6.935999870300293,-10.484000205993652 -6.711999893188477,-11.633000373840332 C-6.48799991607666,-12.782999992370605 -5.36299991607666,-19.38800048828125 -5.36299991607666,-19.38800048828125z"></path></g><g opacity="1" transform="matrix(1,0,0,1,448.06201171875,1310.636962890625)"><path fill="rgb(64,64,64)" fill-opacity="1" d=" M-5.986000061035156,2.447000026702881 C-5.986000061035156,2.447000026702881 0.3959999978542328,13.36400032043457 0.3959999978542328,13.36400032043457 C0.3959999978542328,13.36400032043457 3.999000072479248,4.795000076293945 6.410999774932861,-4.142000198364258 C3.2269999980926514,-0.9900000095367432 5.136000156402588,-11.722999572753906 1.0379999876022339,-12.543000221252441 C-3.062999963760376,-13.36400032043457 -5.986000061035156,-11.274999618530273 -5.986000061035156,-11.274999618530273 C-5.986000061035156,-11.274999618530273 -6.007999897003174,-11.321999549865723 -6.051000118255615,-11.404000282287598 C-6.264999866485596,-9.562999725341797 -6.410999774932861,-7.954999923706055 -6.322999954223633,-7.632999897003174 C-6.113999843597412,-6.861999988555908 -5.986000061035156,2.447000026702881 -5.986000061035156,2.447000026702881z"></path></g><g opacity="1" transform="matrix(1,0,0,1,372.99700927734375,1414.947998046875)"><path fill="rgb(241,139,139)" fill-opacity="1" d=" M53.65299987792969,-25.965999603271484 C53.65299987792969,-25.965999603271484 43.09299850463867,5.920000076293945 33.55500030517578,15.942000389099121 C24.016000747680664,25.965999603271484 -20.64699935913086,17.225000381469727 -20.64699935913086,17.225000381469727 C-20.64699935913086,17.225000381469727 -32.915000915527344,15.753999710083008 -40.71099853515625,18.33300018310547 C-46.88999938964844,20.378000259399414 -53.65299987792969,13.038999557495117 -47.582000732421875,8.177000045776367 C-41.512001037597656,3.313999891281128 -30.840999603271484,5.859000205993652 -30.840999603271484,5.859000205993652 C-30.840999603271484,5.859000205993652 -35.64400100708008,4.229000091552734 -35.22200012207031,2.5250000953674316 C-34.79999923706055,0.8209999799728394 -30.03499984741211,1.180999994277954 -26.983999252319336,4.03000020980835 C-23.93199920654297,6.877999782562256 -28.256999969482422,9.402000427246094 -8.27299976348877,7.177000045776367 C11.711000442504883,4.951000213623047 16.347999572753906,5.547999858856201 17.641000747680664,5.005000114440918 C21.10300064086914,3.5510001182556152 28.007999420166016,-7.604000091552734 32.60100173950195,-25.104999542236328 C32.60100173950195,-25.104999542236328 45.54100036621094,-24.395000457763672 53.65299987792969,-25.965999603271484z"></path></g><g opacity="1" transform="matrix(1,0,0,1,419.0679931640625,1369.970947265625)"><path fill="rgb(213,45,107)" fill-opacity="1" d=" M7.38100004196167,-23.97599983215332 C7.38100004196167,-23.97599983215332 -6.3520002365112305,-29.73900032043457 -11.979999542236328,-6.499000072479248 C-17.608999252319336,16.740999221801758 -23.277999877929688,20.04800033569336 -23.277999877929688,20.04800033569336 C-23.277999877929688,20.04800033569336 -8.0649995803833,29.738000869750977 7.409999847412109,27.077999114990234 C7.785999774932861,25.863000869750977 23.277999877929688,-14.942999839782715 7.38100004196167,-23.97599983215332z"></path></g><g opacity="1" transform="matrix(1,0,0,1,451.7909851074219,1386.623046875)"><path fill="rgb(255,64,129)" fill-opacity="1" d=" M2.7980000972747803,-52.54800033569336 C2.7980000972747803,-52.54800033569336 22.893999099731445,-50.51900100708008 34.22999954223633,-41.37099838256836 C45.566001892089844,-32.222999572753906 34.380001068115234,52.54800033569336 34.380001068115234,52.54800033569336 C34.380001068115234,52.54800033569336 -37.09199905395508,52.54800033569336 -37.09199905395508,52.54800033569336 C-37.09199905395508,52.54800033569336 -45.56700134277344,-13.951000213623047 -35.722999572753906,-36.994998931884766 C-35.722999572753906,-36.994998931884766 -33.11199951171875,-43.66999816894531 -18.232999801635742,-47.775001525878906 C-5.408999919891357,-51.3120002746582 2.7980000972747803,-52.54800033569336 2.7980000972747803,-52.54800033569336z"></path></g><g opacity="1" transform="matrix(1,0,0,1,442.9700012207031,1349.2530517578125)"><path fill="rgb(213,45,107)" fill-opacity="1" d=" M11.125,2.38700008392334 C15.01200008392334,-3.247999906539917 16.81999969482422,-10.017999649047852 17.10099983215332,-14.34000015258789 C13.791000366210938,-14.956000328063965 11.618000030517578,-15.177000045776367 11.618000030517578,-15.177000045776367 C11.618000030517578,-15.177000045776367 3.4110000133514404,-13.942000389099121 -9.413000106811523,-10.404999732971191 C-10.352999687194824,-10.145000457763672 -11.243000030517578,-9.87600040435791 -12.086999893188477,-9.597999572753906 C-12.09000015258789,-9.590999603271484 -17.10099983215332,2.874000072479248 -12.963000297546387,9.024999618530273 C-8.824999809265137,15.177000045776367 2.4820001125335693,14.916000366210938 11.125,2.38700008392334z"></path></g><g opacity="1" transform="matrix(1,0,0,1,429.34600830078125,1415.2459716796875)"><path fill="rgb(255,169,168)" fill-opacity="1" d=" M54.16299819946289,-29.07200050354004 C54.16299819946289,-29.07200050354004 42.582000732421875,9.027000427246094 33.04399871826172,19.048999786376953 C23.506000518798828,29.07200050354004 -21.156999588012695,22.17300033569336 -21.156999588012695,22.17300033569336 C-21.156999588012695,22.17300033569336 -33.42499923706055,20.70199966430664 -41.22100067138672,23.281999588012695 C-47.4010009765625,25.326000213623047 -54.16299819946289,17.98699951171875 -48.09299850463867,13.12399959564209 C-42.02199935913086,8.262999534606934 -31.351999282836914,10.805999755859375 -31.351999282836914,10.805999755859375 C-31.351999282836914,10.805999755859375 -36.15399932861328,9.177000045776367 -35.733001708984375,7.4730000495910645 C-35.31100082397461,5.769000053405762 -30.54599952697754,6.129000186920166 -27.493999481201172,8.97700023651123 C-24.441999435424805,11.824000358581543 -28.695999145507812,13.482000350952148 -8.711999893188477,11.255999565124512 C11.270999908447266,9.031000137329102 15.838000297546387,8.654000282287598 17.1299991607666,8.112000465393066 C20.591999053955078,6.6570000648498535 28.518999099731445,-10.711000442504883 33.111000061035156,-28.211000442504883 C33.111000061035156,-28.211000442504883 46.05099868774414,-27.5 54.16299819946289,-29.07200050354004z"></path></g><g opacity="1" transform="matrix(1,0,0,1,468.35699462890625,1398.4000244140625)"><path fill="rgb(241,139,139)" fill-opacity="1" d=" M10.222000122070312,2.503000020980835 C10.222000122070312,2.503000020980835 11.765000343322754,-1.9149999618530273 11.765000343322754,-1.9149999618530273 C11.765000343322754,-1.9149999618530273 7.4029998779296875,-2.809999942779541 1.25,-5.718999862670898 C-2.25600004196167,-7.375999927520752 -4.9029998779296875,-7.711999893188477 -6.918000221252441,-7.684999942779541 C-8.364999771118164,-2.671999931335449 -10.041000366210938,2.2279999256134033 -11.763999938964844,6.6579999923706055 C1.4290000200271606,7.710999965667725 10.178999900817871,2.5950000286102295 10.190999984741211,2.5880000591278076 C10.199999809265137,2.561000108718872 10.211999893188477,2.5309998989105225 10.222000122070312,2.503000020980835z"></path></g><g opacity="1" transform="matrix(1,0,0,1,440.5669860839844,1336.9090576171875)"><path fill="rgb(255,169,168)" fill-opacity="1" d=" M3.2820000648498535,-21.62700080871582 C3.2820000648498535,-21.62700080871582 8.800999641418457,-10.4399995803833 14.020999908447266,-2.8340001106262207 C14.020999908447266,-2.8340001106262207 12.529999732971191,16.257999420166016 -0.7450000047683716,18.941999435424805 C-14.020000457763672,21.62700080871582 -7.010000228881836,1.937999963760376 -7.010000228881836,1.937999963760376 C-7.010000228881836,1.937999963760376 -11.003999710083008,-4.526000022888184 -11.003999710083008,-4.526000022888184 C-11.003999710083008,-4.526000022888184 -9.843000411987305,-15.51200008392334 -9.843000411987305,-15.51200008392334 C-9.843000411987305,-15.51200008392334 3.2820000648498535,-21.62700080871582 3.2820000648498535,-21.62700080871582z"></path></g><g opacity="1" transform="matrix(1,0,0,1,437.2130126953125,1327.06494140625)"><path fill="rgb(241,139,139)" fill-opacity="1" d=" M-7.650000095367432,5.317999839782715 C-7.650000095367432,5.317999839782715 -3.6559998989105225,11.782999992370605 -3.6559998989105225,11.782999992370605 C7.650000095367432,2.197999954223633 6.636000156402588,-11.782999992370605 6.636000156402588,-11.782999992370605 C6.636000156402588,-11.782999992370605 -6.489999771118164,-5.666999816894531 -6.489999771118164,-5.666999816894531 C-6.489999771118164,-5.666999816894531 -7.650000095367432,5.317999839782715 -7.650000095367432,5.317999839782715z"></path></g><g opacity="1" transform="matrix(1,0,0,1,425.9259948730469,1315.9530029296875)"><path fill="rgb(255,169,168)" fill-opacity="1" d=" M17.92300033569336,-0.6710000038146973 C17.92300033569336,-0.6710000038146973 24.709999084472656,-2.684999942779541 23.516000747680664,-9.770000457763672 C22.322999954223633,-16.854999542236328 16.655000686645508,-15.66100025177002 14.9399995803833,-11.708999633789062 C14.210000038146973,-10.024999618530273 13.89799976348877,-8.329000473022461 13.781000137329102,-6.935999870300293 C13.781000137329102,-6.935999870300293 10.538999557495117,-6.935999870300293 10.538999557495117,-6.935999870300293 C10.538999557495117,-6.935999870300293 8.60099983215332,-19.01799964904785 3.828000068664551,-21.70199966430664 C-0.9449999928474426,-24.386999130249023 -17.799999237060547,-22.475000381469727 -21.08099937438965,-20.881999969482422 C-24.709999084472656,-19.1200008392334 -23.0939998626709,10.366000175476074 -12.503999710083008,17.375999450683594 C-1.9140000343322754,24.386999130249023 14.491999626159668,10.963000297546387 17.92300033569336,-0.6710000038146973z"></path></g><g opacity="1" transform="matrix(1,0,0,1,475.927001953125,1370.31005859375)"><path fill="rgb(213,45,107)" fill-opacity="1" d=" M7.380000114440918,-27.121999740600586 C7.380000114440918,-27.121999740600586 -6.3520002365112305,-32.88600158691406 -11.980999946594238,-9.645000457763672 C-17.608999252319336,13.593999862670898 -23.277999877929688,23.19700050354004 -23.277999877929688,23.19700050354004 C-23.277999877929688,23.19700050354004 -8.065999984741211,32.88600158691406 7.408999919891357,30.226999282836914 C7.784999847412109,29.011999130249023 23.277999877929688,-18.089000701904297 7.380000114440918,-27.121999740600586z"></path></g><g opacity="1" transform="matrix(1,0,0,1,419.1889953613281,1287.112060546875)"><path fill="rgb(64,64,64)" fill-opacity="1" d=" M-20.614999771118164,4.046000003814697 C-17.89900016784668,10.77299976348877 -11.218999862670898,15.008999824523926 -0.367000013589859,11.430000305175781 C10.484000205993652,7.849999904632568 15.793000221252441,14.930999755859375 17.277000427246094,21.9060001373291 C17.277000427246094,21.9060001373291 20.520999908447266,21.9060001373291 20.520999908447266,21.9060001373291 C20.520999908447266,21.9060001373291 20.774999618530273,14.701000213623047 25.798999786376953,13.979000091552734 C25.798999786376953,13.979000091552734 31.0939998626709,-7.704999923706055 16.18899917602539,-13.012999534606934 C3.361999988555908,-17.579999923706055 -31.093000411987305,-21.9060001373291 -20.614999771118164,4.046000003814697z"></path></g><g opacity="1" transform="matrix(1,0,0,1,421.5409851074219,1297.1219482421875)"><path fill="rgb(47,47,47)" fill-opacity="1" d=" M23.445999145507812,3.9690001010894775 C23.445999145507812,3.9690001010894775 23.729000091552734,2.7960000038146973 23.981000900268555,0.9430000185966492 C21.87299919128418,1.312999963760376 20.53499984741211,2.240999937057495 20.53499984741211,2.240999937057495 C20.53499984741211,2.240999937057495 15.472000122070312,-8.442000389099121 3.694000005722046,-5.590000152587891 C-12.769000053405762,-1.6019999980926514 -16.035999298095703,-11.895999908447266 -16.035999298095703,-11.895999908447266 C-16.69499969482422,-2.049999952316284 -8.015000343322754,-0.3700000047683716 -8.015000343322754,-0.3700000047683716 C-19.805999755859375,0.06700000166893005 -23.187000274658203,-6.670000076293945 -23.981000900268555,-8.888999938964844 C-23.702999114990234,-7.954999923706055 -23.382999420166016,-6.989999771118164 -22.968000411987305,-5.9629998207092285 C-20.25200080871582,0.7639999985694885 -13.571000099182129,4.999000072479248 -2.7200000286102295,1.4199999570846558 C8.130999565124512,-2.1600000858306885 13.442000389099121,4.920000076293945 14.925000190734863,11.895999908447266 C14.925000190734863,11.895999908447266 18.167999267578125,11.895999908447266 18.167999267578125,11.895999908447266 C18.167999267578125,11.895999908447266 18.42300033569336,4.691999912261963 23.445999145507812,3.9690001010894775z"></path></g><g opacity="1" transform="matrix(1,0,0,1,404.9800109863281,1288.2330322265625)"><path fill="rgb(64,64,64)" fill-opacity="1" d=" M8.545999526977539,8.519000053405762 C8.545999526977539,8.519000053405762 0.492000013589859,8.559000015258789 -2.2669999599456787,0 C-5.0269999504089355,-8.557999610900879 3.1389999389648438,-11.093999862670898 3.1389999389648438,-11.093999862670898 C3.1389999389648438,-11.093999862670898 -8.545999526977539,-11.949999809265137 -7.420000076293945,0 C-6.295000076293945,11.951000213623047 8.545999526977539,8.519000053405762 8.545999526977539,8.519000053405762z"></path></g><g opacity="1" transform="matrix(1,0,0,1,444.54901123046875,1308.468994140625)"><path fill="rgb(255,255,255)" fill-opacity="1" d=" M1.781999945640564,0 C1.781999945640564,0.9829999804496765 0.9850000143051147,1.781000018119812 0.0010000000474974513,1.781000018119812 C-0.9829999804496765,1.781000018119812 -1.781000018119812,0.9829999804496765 -1.781000018119812,0 C-1.781000018119812,-0.984000027179718 -0.9829999804496765,-1.781000018119812 0.0010000000474974513,-1.781000018119812 C0.9850000143051147,-1.781000018119812 1.781999945640564,-0.984000027179718 1.781999945640564,0z"></path></g><g opacity="1" transform="matrix(1,0,0,1,445.2239990234375,1310.7950439453125)"><path fill="rgb(255,255,255)" fill-opacity="1" d=" M0.6759999990463257,2.3259999752044678 C0.6759999990463257,2.3259999752044678 -0.6759999990463257,2.3259999752044678 -0.6759999990463257,2.3259999752044678 C-0.6759999990463257,2.3259999752044678 -0.6759999990463257,-2.3259999752044678 -0.6759999990463257,-2.3259999752044678 C-0.6759999990463257,-2.3259999752044678 0.6759999990463257,-2.3259999752044678 0.6759999990463257,-2.3259999752044678 C0.6759999990463257,-2.3259999752044678 0.6759999990463257,2.3259999752044678 0.6759999990463257,2.3259999752044678z"></path></g><g opacity="1" transform="matrix(1,0,0,1,423.4169921875,1347.81298828125)"><path fill="rgb(255,255,255)" fill-opacity="1" d=" M2.316999912261963,12.574999809265137 C2.316999912261963,12.574999809265137 1.8869999647140503,12.456000328063965 1.8869999647140503,12.456000328063965 C1.906000018119812,12.383000373840332 3.8380000591278076,5.111000061035156 -0.0860000029206276,-1.0490000247955322 C-4.099999904632568,-7.348999977111816 -4.322000026702881,-12.508000373840332 -4.323999881744385,-12.5600004196167 C-4.323999881744385,-12.5600004196167 -3.875999927520752,-12.574999809265137 -3.875999927520752,-12.574999809265137 C-3.874000072479248,-12.524999618530273 -3.6519999504089355,-7.479000091552734 0.29100000858306885,-1.2899999618530273 C4.324999809265137,5.041999816894531 2.3380000591278076,12.5 2.316999912261963,12.574999809265137z"></path></g><g opacity="1" transform="matrix(1,0,0,1,425.3370056152344,1360.593994140625)"><path fill="rgb(230,241,253)" fill-opacity="1" d=" M-0.18700000643730164,3.313999891281128 C-0.18700000643730164,3.313999891281128 -1.9279999732971191,2.7019999027252197 -1.9279999732971191,2.7019999027252197 C-1.9279999732971191,2.7019999027252197 0.18700000643730164,-3.313999891281128 0.18700000643730164,-3.313999891281128 C0.18700000643730164,-3.313999891281128 1.9279999732971191,-2.7019999027252197 1.9279999732971191,-2.7019999027252197 C1.9279999732971191,-2.7019999027252197 -0.18700000643730164,3.313999891281128 -0.18700000643730164,3.313999891281128z"></path></g><g opacity="1" transform="matrix(1,0,0,1,393.7359924316406,1436.488037109375)"><path fill="rgb(188,202,217)" fill-opacity="1" d=" M-24.21500015258789,2.681999921798706 C-24.21500015258789,2.681999921798706 24.215999603271484,2.681999921798706 24.215999603271484,2.681999921798706 C25.69700050354004,2.681999921798706 26.89699935913086,1.4809999465942383 26.89699935913086,0 C26.89699935913086,-1.4809999465942383 25.69700050354004,-2.681999921798706 24.215999603271484,-2.681999921798706 C24.215999603271484,-2.681999921798706 -24.21500015258789,-2.681999921798706 -24.21500015258789,-2.681999921798706 C-25.695999145507812,-2.681999921798706 -26.89699935913086,-1.4809999465942383 -26.89699935913086,0 C-26.89699935913086,1.4809999465942383 -25.695999145507812,2.681999921798706 -24.21500015258789,2.681999921798706z"></path></g><g opacity="1" transform="matrix(1,0,0,1,367.3059997558594,1404.2559814453125)"><path fill="rgb(188,202,217)" fill-opacity="1" d=" M7.199999809265137,31.410999298095703 C7.199999809265137,31.410999298095703 2.0220000743865967,0.7379999756813049 2.0220000743865967,0.7379999756813049 C2.0220000743865967,0.7379999756813049 -3.555000066757202,-32.29499816894531 -3.555000066757202,-32.29499816894531 C-3.799999952316284,-33.7400016784668 -5.050000190734863,-34.797000885009766 -6.515999794006348,-34.797000885009766 C-6.515999794006348,-34.797000885009766 -7.461999893188477,-34.797000885009766 -7.461999893188477,-34.797000885009766 C-7.461999893188477,-34.797000885009766 4.285999774932861,34.797000885009766 4.285999774932861,34.797000885009766 C5.730000019073486,34.402000427246094 7.4629998207092285,32.97100067138672 7.199999809265137,31.410999298095703z"></path></g><g opacity="1" transform="matrix(1,0,0,1,357.2590026855469,1371.0560302734375)"><path fill="rgb(188,202,217)" fill-opacity="1" d=" M2.5850000381469727,-1.5980000495910645 C2.5850000381469727,-1.5980000495910645 -3.3940000534057617,-1.5980000495910645 -3.3940000534057617,-1.5980000495910645 C-3.3940000534057617,-1.5980000495910645 -0.4050000011920929,1.5980000495910645 -0.4050000011920929,1.5980000495910645 C-0.4050000011920929,1.5980000495910645 2.049999952316284,1.2239999771118164 2.049999952316284,1.2239999771118164 C2.049999952316284,1.2239999771118164 3.3929998874664307,1.2239999771118164 3.3929998874664307,1.2239999771118164 C3.3929998874664307,1.2239999771118164 2.5850000381469727,-1.5980000495910645 2.5850000381469727,-1.5980000495910645z"></path></g><g opacity="1" transform="matrix(1,0,0,1,316.4490051269531,1404.31396484375)"><path fill="rgb(239,249,255)" fill-opacity="1" d=" M-40.92900085449219,34.85599899291992 C-40.92900085449219,34.85599899291992 51.683998107910156,34.85599899291992 51.683998107910156,34.85599899291992 C53.54199981689453,34.85599899291992 54.95399856567383,33.185001373291016 54.64500045776367,31.35300064086914 C54.64500045776367,31.35300064086914 43.88999938964844,-32.35300064086914 43.88999938964844,-32.35300064086914 C43.64699935913086,-33.79800033569336 42.39500045776367,-34.85599899291992 40.92900085449219,-34.85599899291992 C40.92900085449219,-34.85599899291992 -51.68299865722656,-34.85599899291992 -51.68299865722656,-34.85599899291992 C-53.54199981689453,-34.85599899291992 -54.95399856567383,-33.185001373291016 -54.64400100708008,-31.35300064086914 C-54.64400100708008,-31.35300064086914 -43.88999938964844,32.35200119018555 -43.88999938964844,32.35200119018555 C-43.645999908447266,33.797000885009766 -42.39400100708008,34.85599899291992 -40.92900085449219,34.85599899291992z"></path></g><g opacity="1" transform="matrix(1,0,0,1,405.3160095214844,1436.488037109375)"><path fill="rgb(167,179,190)" fill-opacity="1" d=" M1.3609999418258667,0 C1.3609999418258667,0.7509999871253967 0.7509999871253967,1.3600000143051147 0,1.3600000143051147 C-0.7519999742507935,1.3600000143051147 -1.3609999418258667,0.7509999871253967 -1.3609999418258667,0 C-1.3609999418258667,-0.7519999742507935 -0.7519999742507935,-1.3600000143051147 0,-1.3600000143051147 C0.7509999871253967,-1.3600000143051147 1.3609999418258667,-0.7519999742507935 1.3609999418258667,0z"></path></g><g opacity="1" transform="matrix(1,0,0,1,405.3160095214844,1436.488037109375)"><path fill="rgb(88,95,102)" fill-opacity="1" d=" M0.8019999861717224,0 C0.8019999861717224,0.44200000166893005 0.4429999887943268,0.8019999861717224 0,0.8019999861717224 C-0.4429999887943268,0.8019999861717224 -0.8019999861717224,0.44200000166893005 -0.8019999861717224,0 C-0.8019999861717224,-0.4429999887943268 -0.4429999887943268,-0.8019999861717224 0,-0.8019999861717224 C0.4429999887943268,-0.8019999861717224 0.8019999861717224,-0.4429999887943268 0.8019999861717224,0z"></path></g><g opacity="1" transform="matrix(1,0,0,1,405.69500732421875,1436.488037109375)"><path fill="rgb(255,255,255)" fill-opacity="1" d=" M0.8019999861717224,0 C0.8019999861717224,0.44200000166893005 0.4429999887943268,0.8019999861717224 0,0.8019999861717224 C-0.4429999887943268,0.8019999861717224 -0.8019999861717224,0.44200000166893005 -0.8019999861717224,0 C-0.8019999861717224,-0.4429999887943268 -0.4429999887943268,-0.8019999861717224 0,-0.8019999861717224 C0.4429999887943268,-0.8019999861717224 0.8019999861717224,-0.4429999887943268 0.8019999861717224,0z"></path></g><g opacity="1" transform="matrix(1,0,0,1,315.25799560546875,1403.1629638671875)"><path fill="rgb(188,202,217)" fill-opacity="1" d=" M-5.910999774932861,0 C-5.910999774932861,3.265000104904175 -3.265000104904175,5.910999774932861 0,5.910999774932861 C3.265000104904175,5.910999774932861 5.910999774932861,3.265000104904175 5.910999774932861,0 C5.910999774932861,-3.265000104904175 3.265000104904175,-5.910999774932861 0,-5.910999774932861 C-3.265000104904175,-5.910999774932861 -5.910999774932861,-3.265000104904175 -5.910999774932861,0z"></path></g><g opacity="1" transform="matrix(1,0,0,1,374.22698974609375,1443.5169677734375)"><path fill="rgb(73,39,159)" fill-opacity="1" d=" M-123.3479995727539,4.34499979019165 C-123.3479995727539,4.34499979019165 123.3479995727539,4.34499979019165 123.3479995727539,4.34499979019165 C123.3479995727539,4.34499979019165 123.3479995727539,-4.34499979019165 123.3479995727539,-4.34499979019165 C123.3479995727539,-4.34499979019165 -123.3479995727539,-4.34499979019165 -123.3479995727539,-4.34499979019165 C-123.3479995727539,-4.34499979019165 -123.3479995727539,4.34499979019165 -123.3479995727539,4.34499979019165z"></path></g><g opacity="1" transform="matrix(1,0,0,1,443.87200927734375,1427.7919921875)"><path fill="rgb(255,255,255)" fill-opacity="1" d=" M11.097000122070312,-7.585999965667725 C11.097000122070312,-7.585999965667725 7.815999984741211,-7.585999965667725 7.815999984741211,-7.585999965667725 C7.815999984741211,-7.585999965667725 7.815999984741211,-10.14799976348877 7.815999984741211,-10.14799976348877 C7.815999984741211,-10.82800006866455 7.267000198364258,-11.378000259399414 6.585000038146973,-11.378000259399414 C6.585000038146973,-11.378000259399414 -12.788000106811523,-11.378000259399414 -12.788000106811523,-11.378000259399414 C-13.465999603271484,-11.378000259399414 -14.017999649047852,-10.82800006866455 -14.017999649047852,-10.14799976348877 C-14.017999649047852,-10.14799976348877 -14.017999649047852,7.22599983215332 -14.017999649047852,7.22599983215332 C-14.017999649047852,9.515000343322754 -12.154000282287598,11.378000259399414 -9.866000175476074,11.378000259399414 C-9.866000175476074,11.378000259399414 3.6640000343322754,11.378000259399414 3.6640000343322754,11.378000259399414 C5.953000068664551,11.378000259399414 7.815999984741211,9.515000343322754 7.815999984741211,7.22599983215332 C7.815999984741211,7.22599983215332 7.815999984741211,5.945000171661377 7.815999984741211,5.945000171661377 C7.815999984741211,5.945000171661377 11.097000122070312,5.945000171661377 11.097000122070312,5.945000171661377 C12.708000183105469,5.945000171661377 14.017999649047852,4.635000228881836 14.017999649047852,3.0230000019073486 C14.017999649047852,3.0230000019073486 14.017999649047852,-4.664000034332275 14.017999649047852,-4.664000034332275 C14.017999649047852,-6.275000095367432 12.708000183105469,-7.585999965667725 11.097000122070312,-7.585999965667725z M11.559000015258789,3.0230000019073486 C11.559000015258789,3.2769999504089355 11.35099983215332,3.484999895095825 11.097000122070312,3.484999895095825 C11.097000122070312,3.484999895095825 7.815999984741211,3.484999895095825 7.815999984741211,3.484999895095825 C7.815999984741211,3.484999895095825 7.815999984741211,-5.125999927520752 7.815999984741211,-5.125999927520752 C7.815999984741211,-5.125999927520752 11.097000122070312,-5.125999927520752 11.097000122070312,-5.125999927520752 C11.35099983215332,-5.125999927520752 11.559000015258789,-4.918000221252441 11.559000015258789,-4.664000034332275 C11.559000015258789,-4.664000034332275 11.559000015258789,3.0230000019073486 11.559000015258789,3.0230000019073486z"></path></g><g opacity="1" transform="matrix(1,0,0,1,434.6340026855469,1427.7919921875)"><path fill="rgb(239,249,255)" fill-opacity="1" d=" M0.628000020980835,7.22599983215332 C0.628000020980835,7.22599983215332 0.628000020980835,-10.14799976348877 0.628000020980835,-10.14799976348877 C0.628000020980835,-10.82800006866455 1.1799999475479126,-11.378000259399414 1.8580000400543213,-11.378000259399414 C1.8580000400543213,-11.378000259399414 -3.5490000247955322,-11.378000259399414 -3.5490000247955322,-11.378000259399414 C-4.2270002365112305,-11.378000259399414 -4.7789998054504395,-10.82800006866455 -4.7789998054504395,-10.14799976348877 C-4.7789998054504395,-10.14799976348877 -4.7789998054504395,7.22599983215332 -4.7789998054504395,7.22599983215332 C-4.7789998054504395,9.515999794006348 -2.9149999618530273,11.378000259399414 -0.6269999742507935,11.378000259399414 C-0.6269999742507935,11.378000259399414 4.78000020980835,11.378000259399414 4.78000020980835,11.378000259399414 C2.492000102996826,11.378000259399414 0.628000020980835,9.515999794006348 0.628000020980835,7.22599983215332z"></path></g><g opacity="1" transform="matrix(1,0,0,1,444.1659851074219,1421.6920166015625)"><path fill="rgb(188,202,217)" fill-opacity="1" d=" M0.44699999690055847,5.2789998054504395 C0.44699999690055847,5.2789998054504395 -0.4480000138282776,5.2789998054504395 -0.4480000138282776,5.2789998054504395 C-0.4480000138282776,5.2789998054504395 -0.4480000138282776,-5.2789998054504395 -0.4480000138282776,-5.2789998054504395 C-0.4480000138282776,-5.2789998054504395 0.44699999690055847,-5.2789998054504395 0.44699999690055847,-5.2789998054504395 C0.44699999690055847,-5.2789998054504395 0.44699999690055847,5.2789998054504395 0.44699999690055847,5.2789998054504395z"></path></g><g opacity="1" transform="matrix(1,0,0,1,444.1669921875,1426.970947265625)"><path fill="rgb(188,202,217)" fill-opacity="1" d=" M2.509999990463257,0 C2.509999990463257,1.3860000371932983 1.3860000371932983,2.509000062942505 0.0010000000474974513,2.509000062942505 C-1.3860000371932983,2.509000062942505 -2.509000062942505,1.3860000371932983 -2.509000062942505,0 C-2.509000062942505,-1.3860000371932983 -1.3860000371932983,-2.509000062942505 0.0010000000474974513,-2.509000062942505 C1.3860000371932983,-2.509000062942505 2.509999990463257,-1.3860000371932983 2.509999990463257,0z"></path></g><g opacity="1" transform="matrix(1,0,0,1,426.4419860839844,1374.47802734375)"><path fill="rgb(255,255,255)" fill-opacity="1" d=" M-20.746000289916992,62.233001708984375 C-20.746000289916992,62.233001708984375 -20.746000289916992,61.7859992980957 -20.746000289916992,61.7859992980957 C-16.358999252319336,61.7859992980957 -12.654000282287598,60.0620002746582 -9.732000350952148,56.66299819946289 C-2.319000005722046,48.04199981689453 -1.1200000047683716,30.202999114990234 -3.2209999561309814,16.347000122070312 C-7.445000171661377,-11.532999992370605 2.2290000915527344,-21.78499984741211 9.293999671936035,-29.270000457763672 C20.28499984741211,-40.91699981689453 18.577999114990234,-61.98400115966797 18.55900001525879,-62.19499969482422 C18.55900001525879,-62.19499969482422 19.0049991607666,-62.233001708984375 19.0049991607666,-62.233001708984375 C19.023000717163086,-62.02000045776367 20.746999740600586,-40.75400161743164 9.619999885559082,-28.96299934387207 C2.618000030517578,-21.54599952697754 -6.9720001220703125,-11.383999824523926 -2.7769999504089355,16.2810001373291 C-0.6620000004768372,30.236000061035156 -1.8869999647140503,48.224998474121094 -9.392999649047852,56.95500183105469 C-12.404000282287598,60.45800018310547 -16.222999572753906,62.233001708984375 -20.746000289916992,62.233001708984375z"></path></g></g><g transform="matrix(1,0,0,1,-184,-1188)" opacity="1" style="display: block;"><g opacity="1" transform="matrix(1,0,0,1,460.0710144042969,1257.010986328125)"><path fill="rgb(29,190,115)" fill-opacity="1" d=" M16.69300079345703,10.612000465393066 C16.69300079345703,10.612000465393066 -16.69300079345703,10.612000465393066 -16.69300079345703,10.612000465393066 C-18.374000549316406,10.612000465393066 -19.736000061035156,9.25 -19.736000061035156,7.568999767303467 C-19.736000061035156,7.568999767303467 -19.736000061035156,-7.568999767303467 -19.736000061035156,-7.568999767303467 C-19.736000061035156,-9.24899959564209 -18.374000549316406,-10.612000465393066 -16.69300079345703,-10.612000465393066 C-16.69300079345703,-10.612000465393066 16.69300079345703,-10.612000465393066 16.69300079345703,-10.612000465393066 C18.374000549316406,-10.612000465393066 19.736000061035156,-9.24899959564209 19.736000061035156,-7.568999767303467 C19.736000061035156,-7.568999767303467 19.736000061035156,7.568999767303467 19.736000061035156,7.568999767303467 C19.736000061035156,9.25 18.374000549316406,10.612000465393066 16.69300079345703,10.612000465393066z"></path></g><g opacity="1" transform="matrix(1,0,0,1,456.6159973144531,1270.6920166015625)"><path fill="rgb(29,190,115)" fill-opacity="1" d=" M-3.9660000801086426,-3.069000005722046 C-3.9660000801086426,-3.069000005722046 -3.9660000801086426,3.9660000801086426 -3.9660000801086426,3.9660000801086426 C-3.9660000801086426,3.9660000801086426 3.9660000801086426,-3.9660000801086426 3.9660000801086426,-3.9660000801086426 C3.9660000801086426,-3.9660000801086426 -3.9660000801086426,-3.069000005722046 -3.9660000801086426,-3.069000005722046z"></path></g></g><g style="display: block;" transform="matrix(1,0,0,1,-184,-1188)" opacity="1"><g opacity="1" transform="matrix(1,0,0,1,468.55499267578125,1257.010986328125)"><path fill="rgb(255,255,255)" fill-opacity="1" d=" M2.003999948501587,-0.0010000000474974513 C2.003999948501587,1.1059999465942383 1.1069999933242798,2.005000114440918 0,2.005000114440918 C-1.1069999933242798,2.005000114440918 -2.003999948501587,1.1059999465942383 -2.003999948501587,-0.0010000000474974513 C-2.003999948501587,-1.1069999933242798 -1.1069999933242798,-2.005000114440918 0,-2.005000114440918 C1.1069999933242798,-2.005000114440918 2.003999948501587,-1.1069999933242798 2.003999948501587,-0.0010000000474974513z"></path></g></g><g style="display: block;" transform="matrix(1,0,0,1,-184,-1188)" opacity="1"><g opacity="1" transform="matrix(1,0,0,1,460.0710144042969,1257.010986328125)"><path fill="rgb(255,255,255)" fill-opacity="1" d=" M2.003999948501587,-0.0010000000474974513 C2.003999948501587,1.1059999465942383 1.1069999933242798,2.005000114440918 0,2.005000114440918 C-1.1069999933242798,2.005000114440918 -2.003999948501587,1.1059999465942383 -2.003999948501587,-0.0010000000474974513 C-2.003999948501587,-1.1069999933242798 -1.1069999933242798,-2.005000114440918 0,-2.005000114440918 C1.1069999933242798,-2.005000114440918 2.003999948501587,-1.1069999933242798 2.003999948501587,-0.0010000000474974513z"></path></g></g><g style="display: block;" transform="matrix(1,0,0,1,-184,-1188)" opacity="1"><g opacity="1" transform="matrix(1,0,0,1,451.5870056152344,1257.010986328125)"><path fill="rgb(255,255,255)" fill-opacity="1" d=" M2.003999948501587,-0.0010000000474974513 C2.003999948501587,1.1059999465942383 1.1069999933242798,2.005000114440918 0,2.005000114440918 C-1.1069999933242798,2.005000114440918 -2.003999948501587,1.1059999465942383 -2.003999948501587,-0.0010000000474974513 C-2.003999948501587,-1.1069999933242798 -1.1069999933242798,-2.005000114440918 0,-2.005000114440918 C1.1069999933242798,-2.005000114440918 2.003999948501587,-1.1069999933242798 2.003999948501587,-0.0010000000474974513z"></path></g></g><g transform="matrix(1,0,0,1,-189.5699462890625,-1188)" opacity="1" style="display: block;"><g opacity="1" transform="matrix(1,0,0,1,290.2760009765625,1270.9019775390625)"><path fill="rgb(29,190,115)" fill-opacity="1" d=" M28.84000015258789,18.01300048828125 C28.84000015258789,18.01300048828125 -28.840999603271484,18.01300048828125 -28.840999603271484,18.01300048828125 C-28.840999603271484,18.01300048828125 -28.840999603271484,-18.01300048828125 -28.840999603271484,-18.01300048828125 C-28.840999603271484,-18.01300048828125 28.84000015258789,-18.01300048828125 28.84000015258789,-18.01300048828125 C28.84000015258789,-18.01300048828125 28.84000015258789,18.01300048828125 28.84000015258789,18.01300048828125z"></path></g><g opacity="1" transform="matrix(1,0,0,1,290.2749938964844,1270.14404296875)"><path fill="rgb(255,255,255)" fill-opacity="1" d=" M27.327999114990234,17.257999420166016 C27.327999114990234,17.257999420166016 -27.327999114990234,17.257999420166016 -27.327999114990234,17.257999420166016 C-27.327999114990234,17.257999420166016 -27.327999114990234,-17.257999420166016 -27.327999114990234,-17.257999420166016 C-27.327999114990234,-17.257999420166016 27.327999114990234,-17.257999420166016 27.327999114990234,-17.257999420166016 C27.327999114990234,-17.257999420166016 27.327999114990234,17.257999420166016 27.327999114990234,17.257999420166016z"></path></g><g opacity="1" transform="matrix(1,0,0,1,290.2760009765625,1247.4300537109375)"><path fill="rgb(29,190,115)" fill-opacity="1" d=" M25.802000045776367,-5.458000183105469 C25.802000045776367,-5.458000183105469 -25.802000045776367,-5.458000183105469 -25.802000045776367,-5.458000183105469 C-27.479999542236328,-5.458000183105469 -28.840999603271484,-4.0970001220703125 -28.840999603271484,-2.4179999828338623 C-28.840999603271484,-2.4179999828338623 -28.840999603271484,5.458000183105469 -28.840999603271484,5.458000183105469 C-28.840999603271484,5.458000183105469 28.840999603271484,5.458000183105469 28.840999603271484,5.458000183105469 C28.840999603271484,5.458000183105469 28.840999603271484,-2.4179999828338623 28.840999603271484,-2.4179999828338623 C28.840999603271484,-4.0970001220703125 27.479999542236328,-5.458000183105469 25.802000045776367,-5.458000183105469z"></path></g><g opacity="1" transform="matrix(1,0,0,1,271.6189880371094,1247.4300537109375)"><path fill="rgb(255,255,255)" fill-opacity="1" d=" M1.031000018119812,0 C1.031000018119812,0.5690000057220459 0.5699999928474426,1.031000018119812 0,1.031000018119812 C-0.5690000057220459,1.031000018119812 -1.031000018119812,0.5690000057220459 -1.031000018119812,0 C-1.031000018119812,-0.5690000057220459 -0.5690000057220459,-1.031000018119812 0,-1.031000018119812 C0.5699999928474426,-1.031000018119812 1.031000018119812,-0.5690000057220459 1.031000018119812,0z"></path></g><g opacity="1" transform="matrix(1,0,0,1,276.8340148925781,1247.4300537109375)"><path fill="rgb(255,255,255)" fill-opacity="1" d=" M1.031000018119812,0 C1.031000018119812,0.5690000057220459 0.5699999928474426,1.031000018119812 0,1.031000018119812 C-0.5690000057220459,1.031000018119812 -1.031000018119812,0.5690000057220459 -1.031000018119812,0 C-1.031000018119812,-0.5690000057220459 -0.5690000057220459,-1.031000018119812 0,-1.031000018119812 C0.5699999928474426,-1.031000018119812 1.031000018119812,-0.5690000057220459 1.031000018119812,0z"></path></g><g opacity="1" transform="matrix(1,0,0,1,282.0480041503906,1247.4300537109375)"><path fill="rgb(255,255,255)" fill-opacity="1" d=" M1.031000018119812,0 C1.031000018119812,0.5690000057220459 0.5699999928474426,1.031000018119812 0,1.031000018119812 C-0.5690000057220459,1.031000018119812 -1.031000018119812,0.5690000057220459 -1.031000018119812,0 C-1.031000018119812,-0.5690000057220459 -0.5690000057220459,-1.031000018119812 0,-1.031000018119812 C0.5699999928474426,-1.031000018119812 1.031000018119812,-0.5690000057220459 1.031000018119812,0z"></path></g><g opacity="1" transform="matrix(1,0,0,1,290.42999267578125,1269.321044921875)"><path fill="rgb(255,177,49)" fill-opacity="1" d=" M19.736000061035156,10.612000465393066 C19.736000061035156,10.612000465393066 -19.736000061035156,10.612000465393066 -19.736000061035156,10.612000465393066 C-19.736000061035156,10.612000465393066 -19.736000061035156,-10.612000465393066 -19.736000061035156,-10.612000465393066 C-19.736000061035156,-10.612000465393066 19.736000061035156,-10.612000465393066 19.736000061035156,-10.612000465393066 C19.736000061035156,-10.612000465393066 19.736000061035156,10.612000465393066 19.736000061035156,10.612000465393066z"></path></g><g opacity="1" transform="matrix(1,0,0,1,291.2239990234375,1269.321044921875)"><path fill="rgb(255,255,255)" fill-opacity="1" d=" M-2.8340001106262207,0 C-2.8340001106262207,0 -2.8340001106262207,-3.2720000743865967 -2.8340001106262207,-3.2720000743865967 C-2.8340001106262207,-3.2720000743865967 0,-1.6360000371932983 0,-1.6360000371932983 C0,-1.6360000371932983 2.8340001106262207,0 2.8340001106262207,0 C2.8340001106262207,0 0,1.6369999647140503 0,1.6369999647140503 C0,1.6369999647140503 -2.8340001106262207,3.2720000743865967 -2.8340001106262207,3.2720000743865967 C-2.8340001106262207,3.2720000743865967 -2.8340001106262207,0 -2.8340001106262207,0z"></path></g></g><g transform="matrix(1,0,0,1,-178.42999267578125,-1185.2152099609375)" opacity="1" style="display: block;"><g opacity="1" transform="matrix(1,0,0,1,344.5220031738281,1299.781005859375)"><path fill="rgb(73,39,159)" fill-opacity="1" d=" M39.57899856567383,18.01300048828125 C39.57899856567383,18.01300048828125 -39.57899856567383,18.01300048828125 -39.57899856567383,18.01300048828125 C-39.57899856567383,18.01300048828125 -39.57899856567383,-18.01300048828125 -39.57899856567383,-18.01300048828125 C-39.57899856567383,-18.01300048828125 39.57899856567383,-18.01300048828125 39.57899856567383,-18.01300048828125 C39.57899856567383,-18.01300048828125 39.57899856567383,18.01300048828125 39.57899856567383,18.01300048828125z"></path></g><g opacity="1" transform="matrix(1,0,0,1,344.5220031738281,1299.02294921875)"><path fill="rgb(255,255,255)" fill-opacity="1" d=" M38.06700134277344,17.256999969482422 C38.06700134277344,17.256999969482422 -38.06700134277344,17.256999969482422 -38.06700134277344,17.256999969482422 C-38.06700134277344,17.256999969482422 -38.06700134277344,-17.256999969482422 -38.06700134277344,-17.256999969482422 C-38.06700134277344,-17.256999969482422 38.06700134277344,-17.256999969482422 38.06700134277344,-17.256999969482422 C38.06700134277344,-17.256999969482422 38.06700134277344,17.256999969482422 38.06700134277344,17.256999969482422z"></path></g><g opacity="1" transform="matrix(1,0,0,1,344.5220031738281,1276.3089599609375)"><path fill="rgb(73,39,159)" fill-opacity="1" d=" M36.54100036621094,-5.458000183105469 C36.54100036621094,-5.458000183105469 -36.54100036621094,-5.458000183105469 -36.54100036621094,-5.458000183105469 C-38.21900177001953,-5.458000183105469 -39.57899856567383,-4.0970001220703125 -39.57899856567383,-2.4179999828338623 C-39.57899856567383,-2.4179999828338623 -39.57899856567383,5.458000183105469 -39.57899856567383,5.458000183105469 C-39.57899856567383,5.458000183105469 39.57899856567383,5.458000183105469 39.57899856567383,5.458000183105469 C39.57899856567383,5.458000183105469 39.57899856567383,-2.4179999828338623 39.57899856567383,-2.4179999828338623 C39.57899856567383,-4.0970001220703125 38.21900177001953,-5.458000183105469 36.54100036621094,-5.458000183105469z"></path></g><g opacity="1" transform="matrix(1,0,0,1,315.1260070800781,1276.3089599609375)"><path fill="rgb(255,255,255)" fill-opacity="1" d=" M1.031000018119812,-0.0010000000474974513 C1.031000018119812,0.5680000185966492 0.5699999928474426,1.031000018119812 0,1.031000018119812 C-0.5690000057220459,1.031000018119812 -1.031000018119812,0.5680000185966492 -1.031000018119812,-0.0010000000474974513 C-1.031000018119812,-0.5699999928474426 -0.5690000057220459,-1.031000018119812 0,-1.031000018119812 C0.5699999928474426,-1.031000018119812 1.031000018119812,-0.5699999928474426 1.031000018119812,-0.0010000000474974513z"></path></g><g opacity="1" transform="matrix(1,0,0,1,320.3399963378906,1276.3089599609375)"><path fill="rgb(255,255,255)" fill-opacity="1" d=" M1.031000018119812,-0.0010000000474974513 C1.031000018119812,0.5680000185966492 0.5699999928474426,1.031000018119812 0,1.031000018119812 C-0.5690000057220459,1.031000018119812 -1.031000018119812,0.5680000185966492 -1.031000018119812,-0.0010000000474974513 C-1.031000018119812,-0.5699999928474426 -0.5690000057220459,-1.031000018119812 0,-1.031000018119812 C0.5699999928474426,-1.031000018119812 1.031000018119812,-0.5699999928474426 1.031000018119812,-0.0010000000474974513z"></path></g><g opacity="1" transform="matrix(1,0,0,1,325.55499267578125,1276.3089599609375)"><path fill="rgb(255,255,255)" fill-opacity="1" d=" M1.031000018119812,-0.0010000000474974513 C1.031000018119812,0.5680000185966492 0.5699999928474426,1.031000018119812 0,1.031000018119812 C-0.5690000057220459,1.031000018119812 -1.031000018119812,0.5680000185966492 -1.031000018119812,-0.0010000000474974513 C-1.031000018119812,-0.5699999928474426 -0.5690000057220459,-1.031000018119812 0,-1.031000018119812 C0.5699999928474426,-1.031000018119812 1.031000018119812,-0.5699999928474426 1.031000018119812,-0.0010000000474974513z"></path></g><g opacity="1" transform="matrix(1,0,0,1,344.5060119628906,1301.3499755859375)"><path fill="rgb(255,177,49)" fill-opacity="1" d=" M30.07200050354004,1.2230000495910645 C30.07200050354004,1.2230000495910645 -30.07200050354004,1.2230000495910645 -30.07200050354004,1.2230000495910645 C-30.746999740600586,1.2230000495910645 -31.295000076293945,0.675000011920929 -31.295000076293945,-0.0010000000474974513 C-31.295000076293945,-0.675000011920929 -30.746999740600586,-1.2230000495910645 -30.07200050354004,-1.2230000495910645 C-30.07200050354004,-1.2230000495910645 30.07200050354004,-1.2230000495910645 30.07200050354004,-1.2230000495910645 C30.74799919128418,-1.2230000495910645 31.295000076293945,-0.675000011920929 31.295000076293945,-0.0010000000474974513 C31.295000076293945,0.675000011920929 30.74799919128418,1.2230000495910645 30.07200050354004,1.2230000495910645z"></path></g><g opacity="1" transform="matrix(1,0,0,1,344.5060119628906,1307.5880126953125)"><path fill="rgb(255,177,49)" fill-opacity="1" d=" M30.07200050354004,1.2230000495910645 C30.07200050354004,1.2230000495910645 -30.07200050354004,1.2230000495910645 -30.07200050354004,1.2230000495910645 C-30.746999740600586,1.2230000495910645 -31.295000076293945,0.675000011920929 -31.295000076293945,-0.0010000000474974513 C-31.295000076293945,-0.675000011920929 -30.746999740600586,-1.2230000495910645 -30.07200050354004,-1.2230000495910645 C-30.07200050354004,-1.2230000495910645 30.07200050354004,-1.2230000495910645 30.07200050354004,-1.2230000495910645 C30.74799919128418,-1.2230000495910645 31.295000076293945,-0.675000011920929 31.295000076293945,-0.0010000000474974513 C31.295000076293945,0.675000011920929 30.74799919128418,1.2230000495910645 30.07200050354004,1.2230000495910645z"></path></g><g opacity="1" transform="matrix(1,0,0,1,344.5060119628906,1288.81005859375)"><path fill="rgb(255,177,49)" fill-opacity="1" d=" M30.07200050354004,1.2230000495910645 C30.07200050354004,1.2230000495910645 -30.07200050354004,1.2230000495910645 -30.07200050354004,1.2230000495910645 C-30.746999740600586,1.2230000495910645 -31.295000076293945,0.6759999990463257 -31.295000076293945,0 C-31.295000076293945,-0.675000011920929 -30.746999740600586,-1.2230000495910645 -30.07200050354004,-1.2230000495910645 C-30.07200050354004,-1.2230000495910645 30.07200050354004,-1.2230000495910645 30.07200050354004,-1.2230000495910645 C30.74799919128418,-1.2230000495910645 31.295000076293945,-0.675000011920929 31.295000076293945,0 C31.295000076293945,0.6759999990463257 30.74799919128418,1.2230000495910645 30.07200050354004,1.2230000495910645z"></path></g><g opacity="1" transform="matrix(1,0,0,1,344.5060119628906,1295.113037109375)"><path fill="rgb(255,177,49)" fill-opacity="1" d=" M30.07200050354004,1.2230000495910645 C30.07200050354004,1.2230000495910645 -30.07200050354004,1.2230000495910645 -30.07200050354004,1.2230000495910645 C-30.746999740600586,1.2230000495910645 -31.295000076293945,0.675000011920929 -31.295000076293945,-0.0010000000474974513 C-31.295000076293945,-0.675000011920929 -30.746999740600586,-1.2230000495910645 -30.07200050354004,-1.2230000495910645 C-30.07200050354004,-1.2230000495910645 30.07200050354004,-1.2230000495910645 30.07200050354004,-1.2230000495910645 C30.74799919128418,-1.2230000495910645 31.295000076293945,-0.675000011920929 31.295000076293945,-0.0010000000474974513 C31.295000076293945,0.675000011920929 30.74799919128418,1.2230000495910645 30.07200050354004,1.2230000495910645z"></path></g></g><g transform="matrix(0.9443005919456482,0,0,0.9443005919456482,-169.43460083007812,-1111.05078125)" opacity="1" style="display: block;"><g opacity="1" transform="matrix(1,0,0,1,309.34698486328125,1335.458984375)"><path fill="rgb(29,190,115)" fill-opacity="1" d=" M47.9119987487793,19.615999221801758 C47.9119987487793,19.615999221801758 -47.9119987487793,19.615999221801758 -47.9119987487793,19.615999221801758 C-47.9119987487793,19.615999221801758 -47.9119987487793,-19.615999221801758 -47.9119987487793,-19.615999221801758 C-47.9119987487793,-19.615999221801758 47.9119987487793,-19.615999221801758 47.9119987487793,-19.615999221801758 C47.9119987487793,-19.615999221801758 47.9119987487793,19.615999221801758 47.9119987487793,19.615999221801758z"></path></g><g opacity="1" transform="matrix(1,0,0,1,309.3479919433594,1334.635986328125)"><path fill="rgb(255,255,255)" fill-opacity="1" d=" M46.263999938964844,18.79199981689453 C46.263999938964844,18.79199981689453 -46.263999938964844,18.79199981689453 -46.263999938964844,18.79199981689453 C-46.263999938964844,18.79199981689453 -46.263999938964844,-18.79199981689453 -46.263999938964844,-18.79199981689453 C-46.263999938964844,-18.79199981689453 46.263999938964844,-18.79199981689453 46.263999938964844,-18.79199981689453 C46.263999938964844,-18.79199981689453 46.263999938964844,18.79199981689453 46.263999938964844,18.79199981689453z"></path></g><g opacity="1" transform="matrix(1,0,0,1,309.34698486328125,1309.9000244140625)"><path fill="rgb(29,190,115)" fill-opacity="1" d=" M44.87300109863281,-5.942999839782715 C44.87300109863281,-5.942999839782715 -44.87300109863281,-5.942999839782715 -44.87300109863281,-5.942999839782715 C-46.55099868774414,-5.942999839782715 -47.9119987487793,-4.583000183105469 -47.9119987487793,-2.9040000438690186 C-47.9119987487793,-2.9040000438690186 -47.9119987487793,5.942999839782715 -47.9119987487793,5.942999839782715 C-47.9119987487793,5.942999839782715 47.9119987487793,5.942999839782715 47.9119987487793,5.942999839782715 C47.9119987487793,5.942999839782715 47.9119987487793,-2.9040000438690186 47.9119987487793,-2.9040000438690186 C47.9119987487793,-4.583000183105469 46.55099868774414,-5.942999839782715 44.87300109863281,-5.942999839782715z"></path></g><g opacity="1" transform="matrix(1,0,0,1,272.5249938964844,1309.9000244140625)"><path fill="rgb(255,255,255)" fill-opacity="1" d=" M1.1230000257492065,0 C1.1230000257492065,0.6200000047683716 0.6209999918937683,1.121999979019165 0,1.121999979019165 C-0.6190000176429749,1.121999979019165 -1.121999979019165,0.6200000047683716 -1.121999979019165,0 C-1.121999979019165,-0.6200000047683716 -0.6190000176429749,-1.121999979019165 0,-1.121999979019165 C0.6209999918937683,-1.121999979019165 1.1230000257492065,-0.6200000047683716 1.1230000257492065,0z"></path></g><g opacity="1" transform="matrix(1,0,0,1,278.2030029296875,1309.9000244140625)"><path fill="rgb(255,255,255)" fill-opacity="1" d=" M1.121999979019165,0 C1.121999979019165,0.6200000047683716 0.6200000047683716,1.121999979019165 -0.0010000000474974513,1.121999979019165 C-0.6200000047683716,1.121999979019165 -1.1230000257492065,0.6200000047683716 -1.1230000257492065,0 C-1.1230000257492065,-0.6200000047683716 -0.6200000047683716,-1.121999979019165 -0.0010000000474974513,-1.121999979019165 C0.6200000047683716,-1.121999979019165 1.121999979019165,-0.6200000047683716 1.121999979019165,0z"></path></g><g opacity="1" transform="matrix(1,0,0,1,283.8819885253906,1309.9000244140625)"><path fill="rgb(255,255,255)" fill-opacity="1" d=" M1.121999979019165,0 C1.121999979019165,0.6200000047683716 0.6200000047683716,1.121999979019165 -0.0010000000474974513,1.121999979019165 C-0.6200000047683716,1.121999979019165 -1.1230000257492065,0.6200000047683716 -1.1230000257492065,0 C-1.1230000257492065,-0.6200000047683716 -0.6200000047683716,-1.121999979019165 -0.0010000000474974513,-1.121999979019165 C0.6200000047683716,-1.121999979019165 1.121999979019165,-0.6200000047683716 1.121999979019165,0z"></path></g><g opacity="1" transform="matrix(1,0,0,1,282.9580078125,1333.738037109375)"><path fill="rgb(255,177,49)" fill-opacity="1" d=" M11.555000305175781,11.555000305175781 C11.555000305175781,11.555000305175781 -11.555999755859375,11.555000305175781 -11.555999755859375,11.555000305175781 C-11.555999755859375,11.555000305175781 -11.555999755859375,-11.555000305175781 -11.555999755859375,-11.555000305175781 C-11.555999755859375,-11.555000305175781 11.555000305175781,-11.555000305175781 11.555000305175781,-11.555000305175781 C11.555000305175781,-11.555000305175781 11.555000305175781,11.555000305175781 11.555000305175781,11.555000305175781z"></path></g><g opacity="1" transform="matrix(1,0,0,1,320.5350036621094,1337.1689453125)"><path fill="rgb(255,177,49)" fill-opacity="1" d=" M19.67099952697754,1.3320000171661377 C19.67099952697754,1.3320000171661377 -19.67099952697754,1.3320000171661377 -19.67099952697754,1.3320000171661377 C-20.406999588012695,1.3320000171661377 -21.003000259399414,0.7350000143051147 -21.003000259399414,0 C-21.003000259399414,-0.7350000143051147 -20.406999588012695,-1.3320000171661377 -19.67099952697754,-1.3320000171661377 C-19.67099952697754,-1.3320000171661377 19.67099952697754,-1.3320000171661377 19.67099952697754,-1.3320000171661377 C20.4060001373291,-1.3320000171661377 21.003000259399414,-0.7350000143051147 21.003000259399414,0 C21.003000259399414,0.7350000143051147 20.4060001373291,1.3320000171661377 19.67099952697754,1.3320000171661377z"></path></g><g opacity="1" transform="matrix(1,0,0,1,311.9259948730469,1343.9610595703125)"><path fill="rgb(255,177,49)" fill-opacity="1" d=" M11.062000274658203,1.3320000171661377 C11.062000274658203,1.3320000171661377 -11.062000274658203,1.3320000171661377 -11.062000274658203,1.3320000171661377 C-11.79800033569336,1.3320000171661377 -12.394000053405762,0.7360000014305115 -12.394000053405762,0 C-12.394000053405762,-0.7350000143051147 -11.79800033569336,-1.3320000171661377 -11.062000274658203,-1.3320000171661377 C-11.062000274658203,-1.3320000171661377 11.062000274658203,-1.3320000171661377 11.062000274658203,-1.3320000171661377 C11.79800033569336,-1.3320000171661377 12.394000053405762,-0.7350000143051147 12.394000053405762,0 C12.394000053405762,0.7360000014305115 11.79800033569336,1.3320000171661377 11.062000274658203,1.3320000171661377z"></path></g><g opacity="1" transform="matrix(1,0,0,1,320.5350036621094,1323.5140380859375)"><path fill="rgb(255,177,49)" fill-opacity="1" d=" M19.67099952697754,1.3320000171661377 C19.67099952697754,1.3320000171661377 -19.67099952697754,1.3320000171661377 -19.67099952697754,1.3320000171661377 C-20.406999588012695,1.3320000171661377 -21.003000259399414,0.7360000014305115 -21.003000259399414,0 C-21.003000259399414,-0.7350000143051147 -20.406999588012695,-1.3320000171661377 -19.67099952697754,-1.3320000171661377 C-19.67099952697754,-1.3320000171661377 19.67099952697754,-1.3320000171661377 19.67099952697754,-1.3320000171661377 C20.4060001373291,-1.3320000171661377 21.003000259399414,-0.7350000143051147 21.003000259399414,0 C21.003000259399414,0.7360000014305115 20.4060001373291,1.3320000171661377 19.67099952697754,1.3320000171661377z"></path></g><g opacity="1" transform="matrix(1,0,0,1,320.5350036621094,1330.376953125)"><path fill="rgb(255,177,49)" fill-opacity="1" d=" M19.67099952697754,1.3320000171661377 C19.67099952697754,1.3320000171661377 -19.67099952697754,1.3320000171661377 -19.67099952697754,1.3320000171661377 C-20.406999588012695,1.3320000171661377 -21.003000259399414,0.7350000143051147 -21.003000259399414,0 C-21.003000259399414,-0.7350000143051147 -20.406999588012695,-1.3320000171661377 -19.67099952697754,-1.3320000171661377 C-19.67099952697754,-1.3320000171661377 19.67099952697754,-1.3320000171661377 19.67099952697754,-1.3320000171661377 C20.4060001373291,-1.3320000171661377 21.003000259399414,-0.7350000143051147 21.003000259399414,0 C21.003000259399414,0.7350000143051147 20.4060001373291,1.3320000171661377 19.67099952697754,1.3320000171661377z"></path></g><g opacity="1" transform="matrix(1,0,0,1,282.9580078125,1333.738037109375)"><path fill="rgb(255,255,255)" fill-opacity="1" d=" M0,1.5950000286102295 C2.5350000858306885,1.5950000286102295 4.589000225067139,-0.45899999141693115 4.589000225067139,-2.993000030517578 C4.589000225067139,-5.5269999504089355 2.5350000858306885,-7.581999778747559 0,-7.581999778747559 C-2.5339999198913574,-7.581999778747559 -4.589000225067139,-5.5269999504089355 -4.589000225067139,-2.993000030517578 C-4.589000225067139,-0.45899999141693115 -2.5339999198913574,1.5950000286102295 0,1.5950000286102295z M2.3970000743865967,2 C1.6979999542236328,2.431999921798706 0.8820000290870667,2.693000078201294 0,2.693000078201294 C-0.8820000290870667,2.693000078201294 -1.6979999542236328,2.431999921798706 -2.3970000743865967,2 C-4.863999843597412,2.746999979019165 -6.659999847412109,4.883999824523926 -6.659999847412109,7.433000087738037 C-6.659999847412109,7.482999801635742 -6.644999980926514,7.531000137329102 -6.64300012588501,7.581999778747559 C-6.64300012588501,7.581999778747559 6.64300012588501,7.581999778747559 6.64300012588501,7.581999778747559 C6.644999980926514,7.531000137329102 6.659999847412109,7.482999801635742 6.659999847412109,7.433000087738037 C6.659999847412109,4.883999824523926 4.863999843597412,2.746999979019165 2.3970000743865967,2z"></path></g></g></g></svg>